<svg width="24" height="24" viewBox="0 0 24 24" fill="none" xmlns="http://www.w3.org/2000/svg">
<g clip-path="url(#clip0_102_351)">
<path d="M1.5 12C1.5 14.7848 2.60625 17.4555 4.57538 19.4246C6.54451 21.3938 9.21523 22.5 12 22.5C14.7848 22.5 17.4555 21.3938 19.4246 19.4246C21.3938 17.4555 22.5 14.7848 22.5 12C22.5 9.21523 21.3938 6.54451 19.4246 4.57538C17.4555 2.60625 14.7848 1.5 12 1.5C9.21523 1.5 6.54451 2.60625 4.57538 4.57538C2.60625 6.54451 1.5 9.21523 1.5 12ZM24 12C24 15.1826 22.7357 18.2348 20.4853 20.4853C18.2348 22.7357 15.1826 24 12 24C8.8174 24 5.76516 22.7357 3.51472 20.4853C1.26428 18.2348 0 15.1826 0 12C0 8.8174 1.26428 5.76516 3.51472 3.51472C5.76516 1.26428 8.8174 0 12 0C15.1826 0 18.2348 1.26428 20.4853 3.51472C22.7357 5.76516 24 8.8174 24 12ZM12.219 7.488C10.401 7.488 9.3285 8.868 9.3285 11.241V12.831C9.3285 15.1875 10.383 16.524 12.219 16.524C13.6875 16.524 14.6805 15.645 14.8125 14.397H16.755V14.5365C16.605 16.7085 14.724 18.237 12.21 18.237C9.0735 18.237 7.3065 16.233 7.3065 12.8325V11.223C7.3065 7.8315 9.108 5.766 12.2115 5.766C14.733 5.766 16.614 7.347 16.755 9.624V9.756H14.8125C14.6805 8.4375 13.6605 7.488 12.219 7.488Z" fill="black" fill-opacity="0.6"/>
</g>
<defs>
<clipPath id="clip0_102_351">
<rect width="24" height="24" fill="white"/>
</clipPath>
</defs>
</svg>
