<svg width="30" height="30" viewBox="0 0 30 30" fill="none" xmlns="http://www.w3.org/2000/svg">
<g clip-path="url(#clip0_102_346)">
<path d="M1.875 15C1.875 18.481 3.25781 21.8194 5.71922 24.2808C8.18064 26.7422 11.519 28.125 15 28.125C18.481 28.125 21.8194 26.7422 24.2808 24.2808C26.7422 21.8194 28.125 18.481 28.125 15C28.125 11.519 26.7422 8.18064 24.2808 5.71922C21.8194 3.25781 18.481 1.875 15 1.875C11.519 1.875 8.18064 3.25781 5.71922 5.71922C3.25781 8.18064 1.875 11.519 1.875 15ZM30 15C30 18.9782 28.4196 22.7936 25.6066 25.6066C22.7936 28.4196 18.9782 30 15 30C11.0218 30 7.20644 28.4196 4.3934 25.6066C1.58035 22.7936 0 18.9782 0 15C0 11.0218 1.58035 7.20644 4.3934 4.3934C7.20644 1.58035 11.0218 0 15 0C18.9782 0 22.7936 1.58035 25.6066 4.3934C28.4196 7.20644 30 11.0218 30 15ZM15.2738 9.36C13.0013 9.36 11.6606 11.085 11.6606 14.0512V16.0387C11.6606 18.9844 12.9788 20.655 15.2738 20.655C17.1094 20.655 18.3506 19.5562 18.5156 17.9963H20.9438V18.1706C20.7563 20.8856 18.405 22.7962 15.2625 22.7962C11.3419 22.7962 9.13312 20.2913 9.13312 16.0406V14.0287C9.13312 9.78938 11.385 7.2075 15.2644 7.2075C18.4163 7.2075 20.7675 9.18375 20.9438 12.03V12.195H18.5156C18.3506 10.5469 17.0756 9.36 15.2738 9.36Z" fill="white"/>
</g>
<defs>
<clipPath id="clip0_102_346">
<rect width="30" height="30" fill="white"/>
</clipPath>
</defs>
</svg>
