<svg width="30" height="29" viewBox="0 0 30 29" fill="none" xmlns="http://www.w3.org/2000/svg">
<path fill-rule="evenodd" clip-rule="evenodd" d="M15 1.27356C7.40625 1.27356 1.25 7.08134 1.25 14.2453C1.25 21.4092 7.40625 27.217 15 27.217C22.5938 27.217 28.75 21.4092 28.75 14.2453C28.75 7.08134 22.5938 1.27356 15 1.27356ZM20.96 12.0519C21.0697 11.9335 21.1533 11.7957 21.2057 11.6464C21.2582 11.4971 21.2784 11.3395 21.2653 11.1827C21.2522 11.026 21.206 10.8733 21.1295 10.7336C21.0529 10.594 20.9475 10.4701 20.8194 10.3695C20.6914 10.2688 20.5433 10.1933 20.3839 10.1475C20.2244 10.1016 20.0569 10.0863 19.8911 10.1024C19.7253 10.1185 19.5646 10.1657 19.4184 10.2413C19.2723 10.3169 19.1436 10.4192 19.04 10.5424L13.665 16.6262L10.8837 14.0012C10.648 13.7863 10.3322 13.6675 10.0045 13.6702C9.67675 13.6729 9.36324 13.7969 9.13148 14.0155C8.89972 14.2342 8.76826 14.5299 8.76541 14.8391C8.76256 15.1483 8.88855 15.4462 9.11625 15.6686L12.8663 19.2063C12.9891 19.3221 13.1361 19.4125 13.298 19.4717C13.4599 19.531 13.6331 19.5577 13.8066 19.5503C13.9801 19.5428 14.15 19.5014 14.3055 19.4286C14.4611 19.3558 14.5988 19.2532 14.71 19.1273L20.96 12.0519Z" fill="#EAC765"/>
</svg>
