<svg width="40" height="40" viewBox="0 0 40 40" fill="none" xmlns="http://www.w3.org/2000/svg">
<g clip-path="url(#clip0_23_70)">
<path d="M36.6666 21.1111C36.5204 21.1119 36.3754 21.0839 36.24 21.0286C36.1047 20.9733 35.9815 20.8918 35.8777 20.7889L19.9999 4.89997L4.12217 20.7889C3.90961 20.9709 3.6362 21.066 3.35656 21.0552C3.07692 21.0444 2.81165 20.9285 2.61377 20.7306C2.41588 20.5327 2.29996 20.2674 2.28916 19.9878C2.27836 19.7082 2.37348 19.4347 2.5555 19.2222L19.2222 2.55552C19.4303 2.34858 19.712 2.23242 20.0055 2.23242C20.299 2.23242 20.5807 2.34858 20.7888 2.55552L37.4555 19.2222C37.6084 19.3782 37.7119 19.5758 37.7532 19.7903C37.7944 20.0047 37.7715 20.2266 37.6873 20.4282C37.6031 20.6297 37.4614 20.802 37.2799 20.9235C37.0983 21.0449 36.885 21.1102 36.6666 21.1111Z" fill="white"/>
<path d="M20 8.65552L6.66663 22.0333V35.5555C6.66663 36.1449 6.90075 36.7101 7.3175 37.1269C7.73425 37.5436 8.29948 37.7777 8.88885 37.7777H16.6666V26.6666H23.3333V37.7777H31.1111C31.7004 37.7777 32.2657 37.5436 32.6824 37.1269C33.0992 36.7101 33.3333 36.1449 33.3333 35.5555V21.9555L20 8.65552Z" fill="white"/>
</g>
<defs>
<clipPath id="clip0_23_70">
<rect width="40" height="40" fill="white"/>
</clipPath>
</defs>
</svg>
