<svg width="40" height="40" viewBox="0 0 40 40" fill="none" xmlns="http://www.w3.org/2000/svg">
<g clip-path="url(#clip0_23_62)">
<path d="M19.9999 0C14.5637 0 13.8862 0.02625 11.7587 0.11625C9.62244 0.22125 8.17744 0.5525 6.90244 1.0475C5.56802 1.55128 4.35952 2.34002 3.36119 3.35875C2.33962 4.35475 1.55044 5.56392 1.04994 6.9C0.554941 8.175 0.223691 9.62 0.118691 11.7562C0.0224414 13.885 0.00244141 14.5613 0.00244141 19.9975C0.00244141 25.4338 0.0286914 26.1112 0.118691 28.2388C0.223691 30.3687 0.554941 31.82 1.04994 33.095C1.55372 34.4294 2.34246 35.6379 3.36119 36.6362C4.35719 37.6578 5.56636 38.447 6.90244 38.9475C8.17744 39.4363 9.62869 39.7738 11.7587 39.8787C13.8874 39.975 14.5637 39.995 19.9999 39.995C25.4362 39.995 26.1137 39.9688 28.2412 39.8787C30.3712 39.7738 31.8224 39.435 33.0974 38.9475C34.4319 38.4437 35.6404 37.655 36.6387 36.6362C37.6616 35.6413 38.451 34.4319 38.9499 33.095C39.4387 31.82 39.7762 30.3687 39.8812 28.2388C39.9774 26.11 39.9974 25.4338 39.9974 19.9975C39.9974 14.5613 39.9712 13.8837 39.8812 11.7562C39.7762 9.62625 39.4374 8.1675 38.9499 6.9C38.4462 5.56558 37.6574 4.35708 36.6387 3.35875C35.6438 2.33586 34.4343 1.54647 33.0974 1.0475C31.8224 0.5525 30.3712 0.22125 28.2412 0.11625C26.1124 0.02 25.4362 0 19.9999 0ZM19.9999 3.6C25.3387 3.6 25.9762 3.62625 28.0862 3.71625C30.0324 3.8075 31.0924 4.1325 31.7962 4.4075C32.6662 4.72865 33.4537 5.23981 34.1012 5.90375C34.764 6.54853 35.2732 7.33418 35.5912 8.2025C35.8662 8.90625 36.1912 9.96625 36.2824 11.9125C36.3724 14.0225 36.3987 14.6612 36.3987 19.9987C36.3987 25.3363 36.3724 25.975 36.2749 28.085C36.1699 30.0312 35.8449 31.0913 35.5712 31.795C35.1924 32.7337 34.7699 33.39 34.0724 34.1C33.4227 34.7598 32.6358 35.2685 31.7674 35.59C31.0724 35.865 29.9974 36.19 28.0437 36.2812C25.9224 36.3713 25.2974 36.3975 19.9449 36.3975C14.5924 36.3975 13.9687 36.3713 11.8449 36.2738C9.89869 36.1688 8.82494 35.8438 8.12119 35.57C7.17119 35.1912 6.51994 34.7687 5.82244 34.0713C5.11869 33.3675 4.67119 32.6975 4.32619 31.7663C4.04619 31.0713 3.72619 29.9963 3.62244 28.0425C3.55119 25.9463 3.51744 25.2963 3.51744 19.9688C3.51744 14.6438 3.55119 13.9925 3.62244 11.87C3.72619 9.91625 4.04619 8.84375 4.32619 8.14625C4.67119 7.195 5.11994 6.545 5.82244 5.84125C6.51869 5.145 7.17119 4.695 8.12119 4.3425C8.82494 4.06875 9.87244 3.74375 11.8262 3.64625C13.9474 3.57 14.5724 3.5425 19.9174 3.5425L19.9999 3.6ZM19.9999 9.73375C18.6516 9.73326 17.3164 9.99846 16.0706 10.5142C14.8249 11.03 13.6929 11.7862 12.7395 12.7396C11.7861 13.693 11.0299 14.8249 10.5142 16.0707C9.99841 17.3165 9.7332 18.6517 9.73369 20C9.7332 21.3483 9.99841 22.6835 10.5142 23.9293C11.0299 25.1751 11.7861 26.307 12.7395 27.2604C13.6929 28.2138 14.8249 28.97 16.0706 29.4858C17.3164 30.0015 18.6516 30.2667 19.9999 30.2662C21.3483 30.2667 22.6835 30.0015 23.9292 29.4858C25.175 28.97 26.307 28.2138 27.2604 27.2604C28.2138 26.307 28.97 25.1751 29.4857 23.9293C30.0015 22.6835 30.2667 21.3483 30.2662 20C30.2667 18.6517 30.0015 17.3165 29.4857 16.0707C28.97 14.8249 28.2138 13.693 27.2604 12.7396C26.307 11.7862 25.175 11.03 23.9292 10.5142C22.6835 9.99846 21.3483 9.73326 19.9999 9.73375ZM19.9999 26.6663C16.3149 26.6663 13.3337 23.685 13.3337 20C13.3337 16.315 16.3149 13.3337 19.9999 13.3337C23.6849 13.3337 26.6662 16.315 26.6662 20C26.6662 23.685 23.6849 26.6663 19.9999 26.6663ZM33.0799 9.32375C33.0793 9.96083 32.8257 10.5716 32.375 11.0218C31.9243 11.4721 31.3133 11.725 30.6762 11.725C30.3612 11.725 30.0493 11.663 29.7582 11.5424C29.4672 11.4219 29.2028 11.2452 28.98 11.0224C28.7573 10.7997 28.5806 10.5352 28.46 10.2442C28.3395 9.95318 28.2774 9.64126 28.2774 9.32625C28.2774 9.01124 28.3395 8.69932 28.46 8.40829C28.5806 8.11726 28.7573 7.85282 28.98 7.63008C29.2028 7.40733 29.4672 7.23064 29.7582 7.11009C30.0493 6.98955 30.3612 6.9275 30.6762 6.9275C31.9974 6.9275 33.0799 8.0025 33.0799 9.32375Z" fill="white"/>
</g>
<defs>
<clipPath id="clip0_23_62">
<rect width="40" height="40" fill="white"/>
</clipPath>
</defs>
</svg>
