<svg width="40" height="40" viewBox="0 0 40 40" fill="none" xmlns="http://www.w3.org/2000/svg">
<g clip-path="url(#clip0_23_74)">
<path d="M35.9223 6.66673C35.7708 6.65113 35.6182 6.65113 35.4667 6.66673H4.35561C4.15622 6.66981 3.95814 6.6997 3.76672 6.75562L19.8223 22.7445L35.9223 6.66673Z" fill="white"/>
<path d="M37.5666 8.21118L21.3889 24.3223C20.9725 24.7362 20.4093 24.9685 19.8222 24.9685C19.2351 24.9685 18.6719 24.7362 18.2555 24.3223L2.22219 8.3334C2.1729 8.51456 2.14676 8.70123 2.14441 8.88896V31.1112C2.14441 31.7006 2.37854 32.2658 2.79528 32.6825C3.21203 33.0993 3.77726 33.3334 4.36663 33.3334H35.4777C36.0671 33.3334 36.6323 33.0993 37.0491 32.6825C37.4658 32.2658 37.7 31.7006 37.7 31.1112V8.88896C37.6911 8.65746 37.6461 8.42878 37.5666 8.21118ZM5.88885 31.1112H4.34441V29.5223L12.4222 21.5112L13.9889 23.0778L5.88885 31.1112ZM35.4555 31.1112H33.9L25.8 23.0778L27.3666 21.5112L35.4444 29.5223L35.4555 31.1112Z" fill="white"/>
</g>
<defs>
<clipPath id="clip0_23_74">
<rect width="40" height="40" fill="white"/>
</clipPath>
</defs>
</svg>
