<svg width="40" height="40" viewBox="0 0 40 40" fill="none" xmlns="http://www.w3.org/2000/svg">
<g clip-path="url(#clip0_23_68)">
<path d="M39.9213 7.61637C38.4242 8.2745 36.8385 8.70914 35.2151 8.90637C36.9264 7.87924 38.2075 6.2668 38.8213 4.36762C37.2026 5.30637 35.4409 5.97315 33.6063 6.34137C32.3726 5.02319 30.7383 4.14902 28.9571 3.85449C27.1758 3.55996 25.3472 3.86153 23.7548 4.71241C22.1625 5.56329 20.8954 6.91592 20.1503 8.56043C19.4052 10.2049 19.2236 12.0494 19.6338 13.8076C12.8176 13.4889 6.77506 10.2139 2.73381 5.26637C1.99815 6.51747 1.6134 7.94377 1.62006 9.39512C1.61906 10.7443 1.95124 12.0729 2.58711 13.2629C3.22298 14.4528 4.14286 15.4674 5.26506 16.2164C3.96459 16.1771 2.69245 15.8269 1.55506 15.1951V15.2939C1.55466 17.1876 2.20907 19.0233 3.40738 20.4898C4.60568 21.9562 6.27417 22.9632 8.13006 23.3401C7.42705 23.528 6.70272 23.6242 5.97506 23.6264C5.44881 23.6264 4.94631 23.5751 4.44506 23.4826C4.97322 25.1123 5.99632 26.5367 7.37194 27.5577C8.74757 28.5786 10.4073 29.1453 12.1201 29.1789C9.21807 31.4515 5.63729 32.6844 1.95131 32.6801C1.29844 32.6827 0.64601 32.646 -0.00244141 32.5701C3.75767 34.9794 8.13052 36.2585 12.5963 36.2551C27.6801 36.2551 35.9226 23.7614 35.9226 12.9414C35.9226 12.5964 35.9226 12.2451 35.8963 11.8926C37.5087 10.7371 38.8982 9.2988 39.9976 7.64762L39.9213 7.61637Z" fill="white"/>
</g>
<defs>
<clipPath id="clip0_23_68">
<rect width="40" height="40" fill="white"/>
</clipPath>
</defs>
</svg>
